<svg version="1.2" xmlns="http://www.w3.org/2000/svg" viewBox="0 0 396 512" width="396" height="512">
	<title>page-line-icon-svg</title>
	<style>
		.s0 { fill: #000000 } 
	</style>
	<path id="Layer" fill-rule="evenodd" class="s0" d="m101.4 68h143.6q0.9 0 1.7 0.2 0.8 0.2 1.6 0.6 0.7 0.3 1.4 0.9 0.6 0.5 1.1 1.2l90.6 98q0.4 0.5 0.8 1 0.4 0.6 0.6 1.2 0.3 0.7 0.4 1.3 0.1 0.7 0.1 1.4v220.9c0 13.4-5.5 25.6-14.3 34.4-8.8 8.9-21 14.4-34.4 14.4h-193.2c-13.4 0-25.6-5.5-34.4-14.4-8.8-8.8-14.3-21-14.3-34.4v-278c0-13.4 5.4-25.6 14.3-34.4 8.8-8.8 21-14.3 34.4-14.3zm227.5 124.6h-37.3c-17.8-0.3-31.8-5-41.7-13.5-10.3-8.8-16.1-21.4-17.2-37l-0.1-1v-58.6h-131.2c-9.4 0-18 3.9-24.2 10.1-6.2 6.2-10.1 14.7-10.1 24.1v278c0 9.4 3.9 18 10.1 24.2 6.2 6.2 14.8 10.1 24.2 10.1h193.2c9.4 0 18-3.9 24.2-10.1 6.2-6.2 10.1-14.8 10.1-24.2zm-193.1 109.1c-4 0-7.2-3.2-7.2-7.2 0-4 3.2-7.3 7.2-7.3h117.8c4 0 7.2 3.3 7.2 7.3 0 4-3.2 7.2-7.2 7.2zm0 64c-4 0-7.3-3.3-7.3-7.3 0-4 3.3-7.2 7.3-7.2h99.8c4 0 7.3 3.2 7.3 7.2 0 4-3.3 7.3-7.3 7.3zm111.3-277.6v53c0.8 11.6 4.9 20.8 12.2 27 7.3 6.3 18.1 9.8 32.4 10.1l37.1-0.1v-1.5zm-111.2 153.8c-4 0-7.3-3.2-7.3-7.2 0-4 3.3-7.2 7.3-7.2h124.3c4 0 7.2 3.2 7.2 7.2 0 4-3.2 7.2-7.2 7.2z"/>
</svg>